<svg width="1024" height="1024" viewBox="0 0 1024 1024" xmlns="http://www.w3.org/2000/svg"><path d="M 204.8 0 L 819.2 0 A 204.8 204.8 0 0 1 1024 204.8 L 1024 819.2 A 204.8 204.8 0 0 1 819.2 1024 L 204.8 1024 A 204.8 204.8 0 0 1 0 819.2 L 0 204.8 A 204.8 204.8 0 0 1 204.8 0 Z" fill="#2196F3"/><circle cx="512" cy="512" r="358.4" stroke="#FFFFFF" stroke-width="35.84" fill="none"/><path d="M 350.72 282.624 L 529.92 425.98400000000004 L 422.4 512 L 512 512 L 673.28 741.376 L 494.08 598.016 L 601.6 512 L 512 512 Z" fill="#FFFFFF"/><text x="512" y="834.56" text-anchor="middle" fill="#FFFFFF" font-size="61.44" font-weight="bold" font-family="Arial">WS VPN</text></svg>